<svg class="uforpc-logo-pc" xmlns="http://www.w3.org/2000/svg" xmlns:xlink="http://www.w3.org/1999/xlink" version="1.1" id="Layer_1" x="0px" y="0px" enable-background="new 0 0 1611 594" xml:space="preserve" viewBox="613.82 4.46 988 582.73">
<path class="p-hole" fill="transparent" d=" M816.920105,87.000031   C816.979248,80.337708 816.833679,74.165062 817.145142,68.015556   C817.623413,58.572979 820.946289,54.811131 830.327515,54.701920   C848.795776,54.486927 867.292725,54.399326 885.424988,59.068100   C895.776306,61.733398 905.935791,64.677109 914.971191,70.671951   C933.567749,83.010460 943.302734,101.132637 948.390381,122.148079   C956.553406,155.867279 958.620178,190.014664 953.214844,224.298569   C949.760193,246.209961 942.948547,267.089355 927.407776,283.940002   C912.453247,300.154907 893.359924,309.212280 872.540649,315.092102   C858.033020,319.189362 843.406494,319.904785 828.594238,316.366760   C819.849487,314.278015 816.944275,311.528442 816.838562,302.394684   C816.597534,281.573639 816.560364,260.749146 816.587524,239.926285   C816.653870,189.117493 816.803833,138.308792 816.920105,87.000031  z"/>
<path class="p" fill="currentColor" d=" M1052.991211,286.969971   C1028.698242,318.803864 996.843262,338.507965 958.865356,348.895020   C920.109741,359.494781 880.500793,362.355560 840.531616,362.091583   C836.559204,362.065338 832.501892,362.191498 828.626587,362.963348   C821.643677,364.354187 817.747009,368.997833 816.986938,376.118195   C816.740234,378.429321 816.774414,380.776917 816.780579,383.107574   C816.870789,417.436523 816.940186,451.765625 817.113770,486.094208   C817.147400,492.753357 817.307190,499.437714 817.919556,506.063232   C819.719849,525.540833 832.106506,538.389465 851.595520,539.996399   C864.515686,541.061768 877.548401,540.908508 890.532898,541.003357   C901.559875,541.083923 906.183716,544.499329 907.713501,555.472107   C908.344849,560.000183 908.260498,564.833740 907.403198,569.318420   C905.867004,577.354187 900.683838,581.586548 892.534668,582.408203   C888.894348,582.775269 885.218506,582.946960 881.559021,582.944397   C801.401978,582.888245 721.244995,582.795593 641.087952,582.707825   C634.497131,582.700562 628.189514,581.844788 622.651978,577.714844   C612.221130,569.935486 610.606262,552.647034 620.057007,543.703491   C622.030090,541.836304 625.833191,541.601624 628.869446,541.214355   C639.084412,539.911316 649.614746,539.995300 659.510559,537.506042   C678.997803,532.604065 685.251465,527.804810 688.532471,502.432495   C689.787659,492.725586 689.716064,482.806915 689.720581,472.984497   C689.777283,348.999329 689.768005,225.014084 689.638977,101.028992   C689.631958,94.245346 688.679199,87.426239 687.719910,80.687233   C685.385986,64.290810 675.293579,55.461452 659.389648,52.967617   C651.508118,51.731735 643.535278,51.002491 635.579468,50.331253   C617.447632,48.801441 616.362244,46.067924 615.209839,27.921469   C615.157898,27.102667 615.305603,26.254936 615.465393,25.441324   C618.923279,7.834474 621.231873,8.881625 634.247925,8.886550   C710.735474,8.915489 787.231323,8.231963 863.706909,9.188560   C900.648926,9.650650 937.806763,12.611064 973.527527,22.662273   C1030.952148,38.820587 1069.366089,74.955048 1082.433350,134.579956   C1093.506348,185.104431 1085.395142,232.875061 1059.327515,277.557007   C1057.485352,280.714813 1055.243896,283.639832 1052.991211,286.969971  M816.920105,87.500061   C816.803833,138.308792 816.653870,189.117493 816.587524,239.926285   C816.560364,260.749146 816.597534,281.573639 816.838562,302.394684   C816.944275,311.528442 819.849487,314.278015 828.594238,316.366760   C843.406494,319.904785 858.033020,319.189362 872.540649,315.092102   C893.359924,309.212280 912.453247,300.154907 927.407776,283.940002   C942.948547,267.089355 949.760193,246.209961 953.214844,224.298569   C958.620178,190.014664 956.553406,155.867279 948.390381,122.148079   C943.302734,101.132637 933.567749,83.010460 914.971191,70.671951   C905.935791,64.677109 895.776306,61.733398 885.424988,59.068100   C867.292725,54.399326 848.795776,54.486927 830.327515,54.701920   C820.946289,54.811131 817.623413,58.572979 817.145142,68.015556   C816.833679,74.165062 816.979248,80.337708 816.920105,87.500061  z"/>
<path class="c" fill="currentColor" d=" M1145.308594,330.659119   C1140.505859,271.094208 1148.575439,213.740341 1169.978516,158.501511   C1195.770874,91.934715 1243.155518,47.075424 1310.132324,23.136820   C1349.094727,9.211033 1389.591919,4.197748 1430.919800,4.468969   C1468.141357,4.713243 1504.082031,12.083195 1539.227661,23.328003   C1564.004883,31.255430 1584.023682,45.972450 1595.464355,70.347633   C1610.818115,103.059883 1597.497314,138.174225 1564.366943,152.823029   C1549.599976,159.352310 1534.266724,163.427643 1518.152344,164.623306   C1507.580933,165.407700 1503.696655,163.005051 1501.499023,152.659760   C1499.947510,145.355850 1499.393066,137.840958 1498.373779,130.422989   C1492.427979,87.148163 1467.449219,61.838314 1424.232300,55.811794   C1381.752197,49.887989 1330.788940,69.885078 1308.870605,117.939896   C1296.091797,145.956635 1289.734985,175.279190 1285.213501,205.333374   C1278.490234,250.021530 1276.602295,294.921844 1280.377686,339.915894   C1282.871704,369.635864 1286.730103,399.331604 1297.486572,427.431519   C1311.088257,462.964294 1333.362305,491.686005 1367.310791,509.955750   C1402.434570,528.858093 1439.560303,532.888916 1478.187134,522.648682   C1510.526001,514.075500 1539.165039,498.846039 1563.382202,475.584290   C1570.466919,468.779114 1577.696777,462.120575 1584.640991,455.175873   C1587.288086,452.528595 1589.084473,452.727356 1591.656494,455.200195   C1597.616577,460.930389 1600.765137,467.800171 1601.099609,476.019287   C1602.285522,505.160156 1589.699463,527.640198 1567.720581,545.756287   C1546.332031,563.385803 1521.362305,572.852478 1494.661621,578.564819   C1429.656372,592.472412 1365.417969,590.155945 1302.801270,567.191589   C1240.378296,544.298218 1197.436646,500.777954 1172.157837,439.399689   C1157.824097,404.596619 1149.281738,368.451447 1145.308594,330.659119  z"/>
</svg>