<svg class="uforpc-logo-r" xmlns="http://www.w3.org/2000/svg" version="1.1" id="Layer_1" x="0px" y="0px" enable-background="new 0 0 1611 594" viewBox="45.15 8.94 548.52 574.15">
  <ellipse class="r-hole" fill="transparent" stroke="none" cx="313.442" cy="176.676" rx="146.292" ry="146.985"/>
  <path class="r" fill="currentColor" d="M 248.758 510.03 C 251.193 529.363 265.324 538.655 282.415 540.053 C 287.727 540.487 293.061 540.692 298.365 541.204 C 305.912 541.934 310.081 545.337 311.302 552.822 C 312.205 558.356 312.486 564.111 312.106 569.704 C 311.659 576.294 307.289 580.683 300.793 581.967 C 297.226 582.672 293.537 583.082 289.904 583.083 C 216.577 583.086 143.25 583.01 69.923 582.951 C 68.256 582.95 66.59 582.979 64.923 582.964 C 51.31 582.841 44.712 576.02 45.176 562.392 C 45.272 559.574 45.639 556.734 46.198 553.968 C 47.923 545.432 52.719 541.582 61.505 541.106 C 69.645 540.665 77.935 540.826 85.874 539.271 C 110.733 534.401 115.417 525.514 118.794 503.678 C 119.983 495.991 119.813 488.055 119.827 480.233 C 119.923 426.569 119.427 111.838 118.927 87.686 C 118.739 78.614 115.721 69.527 109.672 63.419 C 104.549 58.246 96.51 55.118 89.205 53.172 C 80.786 50.929 71.777 50.636 62.988 50.115 C 51.818 49.453 47.381 45.893 45.689 34.832 C 45.289 32.214 45.059 29.519 45.182 26.879 C 45.761 14.434 51.263 9 63.641 8.995 C 139.803 8.97 215.966 8.806 292.126 9.18 C 316.085 9.298 340.15 9.783 363.963 12.146 C 398.087 15.531 428.757 20.224 457.956 39.219 C 484.201 56.292 498.284 86.371 501.917 93.904 C 504.072 98.372 513.831 130.225 515.308 142.44 C 518.106 165.587 520.383 186.156 519.96 201.44 C 519.425 220.769 521.405 212.904 513.902 251.498 C 507.507 284.393 489.214 304.847 481.817 311.479 C 471.323 320.887 457.188 334.977 440.436 340.531 C 436.652 341.786 435.532 343.579 437.233 347.075 C 438.761 350.216 440.212 353.418 442.017 356.399 C 468.336 399.868 494.611 443.365 521.129 486.712 C 529.042 499.647 537.63 512.163 548.996 522.482 C 559.438 531.962 571.544 538.361 585.044 542.16 C 593.029 544.407 594.026 545.618 593.585 554.101 C 593.265 560.259 592.998 566.42 592.596 572.572 C 592.17 579.097 589.927 581.408 583.444 582.194 C 581.958 582.374 580.455 582.43 578.958 582.489 C 541.627 583.962 504.74 580.701 468.482 571.57 C 436.226 563.447 412.627 543.804 396.988 514.936 C 370.648 466.319 307.8 350.9 306.521 348.564 C 306.022 347.653 247.587 347.811 247.588 349.271 C 247.641 396.934 247.69 450.493 247.818 498.156 C 247.828 501.971 248.396 505.784 248.758 510.03 M 325.589 303.418 C 333.374 303.451 342.101 301.915 350.131 300.003 C 373.568 294.422 395.763 280.945 408.262 256.947 C 437.241 201.312 417.37 115.8 413.757 106.393 C 398.265 66.052 363.999 52.046 321.221 49.608 C 297.207 48.239 276.497 47.142 241.387 48.849 C 240.317 48.901 241.697 97.085 241.711 102.188 C 241.809 136.636 242.375 170.107 242.323 201.464 C 242.261 238.766 244.44 273.039 244.267 302.305"/>
</svg>