<svg class="uforpc-logo-r-ufo" xmlns="http://www.w3.org/2000/svg" xmlns:xlink="http://www.w3.org/1999/xlink" version="1.1" id="Layer_1" x="0px" y="0px" enable-background="new 0 0 1611 594" xml:space="preserve" viewBox="10.7 8.94 623.72 574.14">
<path class="ufo-hat" fill="transparent" opacity="1.000000" stroke="none" d=" M329.998718,137.946198   C289.342682,137.893616 249.256332,138.928467 209.499283,145.383133   C205.566788,146.021576 201.555725,146.230301 197.571136,146.477249   C194.233047,146.684128 193.038239,145.453537 194.410339,141.953415   C206.004730,112.376984 224.236450,88.318398 252.028580,72.124054   C273.710022,59.490372 297.191162,53.709610 322.177460,54.058090   C365.021271,54.655632 401.324677,70.025314 429.564270,102.736168   C439.540222,114.291626 446.994202,127.450150 451.512634,142.169205   C452.760681,146.234909 451.846252,147.584183 447.423431,147.111069   C422.602234,144.455994 397.787537,141.672150 372.916138,139.580566   C358.830872,138.396027 344.641174,138.452728 329.998718,137.946198  M246.814972,126.203720   C252.217209,125.701439 257.619446,125.199158 263.021667,124.696877   C263.002441,124.045364 262.983215,123.393852 262.964020,122.742340   C259.143982,122.742340 255.323807,122.764786 251.503998,122.735863   C247.872025,122.708366 245.855026,120.615280 247.087845,117.332275   C248.802551,112.765900 250.875702,108.110947 253.819214,104.280701   C258.408752,98.308594 263.857788,92.997025 268.124390,88.305305   C261.537506,88.840996 223.541901,120.297859 221.137619,128.396423   C221.458710,128.460419 221.787811,128.606750 222.099701,128.576355   C230.034134,127.802650 237.966736,127.010437 246.814972,126.203720  z"/>
<path class="ufo-top" fill="transparent" opacity="1.000000" stroke="none" d=" M597.583740,213.419739   C605.590393,220.128006 612.633789,227.143250 617.101013,238.023026   C611.542603,236.486191 607.291748,235.317902 603.044922,234.135605   C571.008301,225.216888 538.306458,219.972214 505.229340,217.267853   C463.564606,213.861328 421.897552,209.989929 380.150848,208.188049   C305.655701,204.972702 231.249771,207.793091 157.019424,215.001846   C117.050667,218.883331 77.173882,223.245361 38.432133,234.542404   C35.443497,235.413879 32.433956,236.213669 28.105671,237.415710   C29.194418,234.836929 29.664913,233.235321 30.489933,231.843948   C38.574333,218.209839 51.164101,209.417130 64.089905,201.115540   C90.401070,184.217239 119.436714,173.563629 149.302795,165.127502   C197.517853,151.508408 246.982788,146.512894 296.860596,144.655563   C330.542358,143.401367 364.161591,144.342865 397.671204,147.932480   C438.953339,152.354721 479.868805,158.601730 519.201965,172.752136   C547.060730,182.774551 573.938782,194.559998 597.583740,213.419739  M321.262634,191.991318   C329.119385,188.961792 332.847351,183.544922 331.205658,177.543747   C329.543243,171.466980 322.582794,167.767151 315.090485,168.977753   C308.080597,170.110382 303.207916,175.582687 303.632568,181.845642   C304.125458,189.114716 311.090546,193.387451 321.262634,191.991318  M471.552094,181.887878   C468.472595,181.258102 465.407959,180.260254 462.308105,180.135315   C460.420776,180.059235 458.479218,181.328995 456.562012,181.994217   C457.369598,183.686584 457.776093,185.806396 459.050079,187.001770   C467.155518,194.607208 476.976196,198.797928 487.901184,200.186661   C490.023529,200.456436 492.367249,198.984833 494.608856,198.316498   C493.418915,196.262451 492.727570,193.404968 490.948181,192.300812   C484.944427,188.575378 478.554291,185.472656 471.552094,181.887878  M141.830048,193.340439   C140.786240,195.451401 139.742432,197.562378 138.698624,199.673355   C141.129013,200.330231 143.651443,201.777695 145.973907,201.507370   C156.121628,200.326248 165.289719,196.436829 173.003296,189.671265   C174.541855,188.321838 175.049072,185.796539 176.031830,183.813446   C173.942261,183.135651 171.802887,181.754623 169.771530,181.898529   C159.524353,182.624466 150.499786,186.703522 141.830048,193.340439  z"/>
<path class="ufo-middle-left" fill="transparent" opacity="1.000000" stroke="none" d=" M95.441315,228.326782   C111.751640,226.407669 127.633194,224.621292 143.500137,222.713547   C147.760193,222.201370 151.126236,223.189133 154.283401,226.355148   C174.864502,246.994080 195.605606,267.473358 216.262283,288.037109   C218.262558,290.028412 220.180298,292.134613 221.899704,294.369537   C225.738708,299.359650 225.432129,300.040863 219.374924,301.042908   C212.478088,302.183899 205.399918,302.710205 198.737411,304.656647   C191.476089,306.778046 184.177032,309.502106 177.694717,313.321655   C172.697723,316.265961 168.361176,316.994293 163.166275,315.138336   C144.203964,308.363953 125.066612,302.046356 106.290901,294.791412   C83.622551,286.032288 61.358364,276.259735 41.403557,262.075958   C36.831005,258.825806 32.576572,255.063736 28.505182,251.190903   C24.408159,247.293716 25.187170,243.963409 30.744297,242.682190   C52.125240,237.752731 73.579887,233.142960 95.441315,228.326782  z"/>
<path class="ufo-middle-center" fill="transparent" opacity="1.000000" stroke="none" d=" M170.148056,220.004303   C263.301178,210.720428 356.099854,210.535217 448.956696,217.241364   C459.378265,217.994003 469.749359,219.445953 481.234985,220.692001   C479.472321,223.331406 478.512604,225.418198 476.992188,226.947678   C454.094513,249.982529 431.161438,272.982910 408.072266,295.825165   C406.704437,297.178406 403.918915,297.717072 401.833649,297.632660   C375.723969,296.575836 349.617401,294.303680 323.518921,294.415649   C294.751984,294.539062 265.997314,296.886536 237.227341,298.010132   C234.599716,298.112793 231.158218,297.122864 229.346100,295.356445   C207.163986,273.734070 185.199310,251.888290 163.232834,230.045563   C161.053055,227.878067 159.231995,225.349823 156.353836,221.931152   C161.706879,221.179901 165.703888,220.618942 170.148056,220.004303  z"/>
<path class="ufo-middle-right" fill="transparent" opacity="1.000000" stroke="none" d=" M613.506470,250.317749   C603.684875,257.459869 594.697449,265.373962 584.464355,271.037018   C548.609619,290.879364 510.201996,304.527527 470.844635,315.568451   C468.724670,316.163208 465.550354,315.884491 463.858643,314.651520   C453.102448,306.812012 440.737152,303.987183 427.951111,302.108368   C423.265717,301.419922 418.647369,300.275208 412.640350,299.065002   C418.679230,292.386078 423.561188,286.550140 428.897095,281.164001   C447.648743,262.235809 466.505890,243.410858 485.494049,224.720566   C487.145050,223.095505 490.135651,221.757187 492.359741,221.949936   C525.032471,224.781433 557.715332,227.743637 589.564941,236.135681   C598.667358,238.534088 607.558533,241.734146 617.467224,244.856766   C615.769836,247.243973 614.769653,248.650726 613.506470,250.317749  z"/>
<path class="ufo-bottom" fill="transparent" opacity="1.000000" stroke="none" d=" M375.837219,342.886780   C329.417328,346.810730 283.518433,346.467010 237.847595,339.715546   C222.579269,337.458466 207.564407,333.482300 192.441238,330.256531   C191.312622,330.015778 189.995560,329.762177 189.201614,329.037415   C187.605515,327.580414 185.186417,325.779480 185.207458,324.147583   C185.228394,322.523743 187.535629,320.111633 189.343674,319.475281   C195.910141,317.164154 202.590698,314.976807 209.400696,313.589172   C273.687836,300.489227 338.385345,299.882202 403.229126,308.324463   C417.675842,310.205292 431.916534,313.920532 446.096130,317.422668   C449.627319,318.294769 452.551514,321.624390 455.754669,323.824524   C452.668121,326.121124 449.822845,328.906128 446.429810,330.582397   C442.750793,332.399994 438.641815,333.703613 434.581177,334.331970   C415.179047,337.334564 395.729736,340.031799 375.837219,342.886780  z"/>
<path class="r" fill="#000000" opacity="1.000000" stroke="none" d=" M248.757706,510.030212   C251.192810,529.362854 265.323669,538.655457 282.414703,540.052551   C287.727478,540.486816 293.060760,540.691589 298.365021,541.204407   C305.911774,541.934021 310.080566,545.336914 311.302124,552.822327   C312.205170,558.356140 312.485748,564.110962 312.106293,569.703735   C311.659119,576.294250 307.289154,580.682922 300.792664,581.967285   C297.225861,582.672363 293.537445,583.082458 289.903870,583.082642   C216.576843,583.085999 143.249832,583.010315 69.922806,582.951477   C68.256256,582.950195 66.589531,582.978943 64.923157,582.963867   C51.309525,582.840820 44.712120,576.020264 45.176079,562.391907   C45.272026,559.573547 45.638916,556.733582 46.197857,553.967590   C47.922760,545.431702 52.718636,541.581787 61.505154,541.105774   C69.644684,540.664917 77.934715,540.826172 85.874100,539.270752   C110.733315,534.400635 115.416679,525.514343 118.794357,503.677673   C119.983276,495.991211 119.812767,488.055359 119.826836,480.232605   C119.923378,426.569458 119.841644,372.905884 120.021088,319.243164   C120.038567,314.016785 118.511002,310.827148 113.559914,308.874878   C96.047310,301.969482 78.382744,295.374481 61.230919,287.651062   C45.250015,280.454926 30.126032,271.543060 18.314720,258.115234   C16.031075,255.519043 13.930308,252.632736 12.362611,249.564758   C9.658292,244.272430 10.385632,239.153564 13.522515,233.973511   C21.743681,220.397629 33.218441,210.146042 46.125721,201.353653   C67.048805,187.100952 89.542877,175.984695 113.807541,168.672867   C118.480606,167.264694 120.043747,164.987045 119.944870,160.153610   C119.450775,136.000778 119.427299,111.838295 118.926643,87.685661   C118.738609,78.614326 115.720879,69.526886 109.671951,63.418900   C104.549217,58.246155 96.509842,55.117794 89.205170,53.171631   C80.786324,50.928619 71.777321,50.636059 62.987946,50.114933   C51.818211,49.452671 47.380772,45.893440 45.689228,34.831974   C45.288818,32.213589 45.059025,29.518824 45.181927,26.879269   C45.761398,14.433802 51.263260,8.999565 63.641243,8.995438   C139.802994,8.970040 215.965851,8.806084 292.125916,9.180376   C316.084625,9.298123 340.149811,9.783105 363.963287,12.145720   C398.087006,15.531246 431.310059,23.283047 461.449097,40.747513   C491.435547,58.123566 511.889160,83.030693 521.748901,116.597389   C526.075195,131.325714 528.330566,146.172943 527.796265,161.436768   C527.621704,166.423935 529.442017,168.511612 534.256348,170.258438   C567.335693,182.260757 598.932800,196.974823 624.172485,222.526932   C624.991089,223.355652 625.784302,224.215637 626.525085,225.114059   C637.982117,239.008484 636.994934,248.987244 623.363464,260.678528   C609.910156,272.216980 594.388489,280.428406 578.370056,287.360870   C549.331909,299.928101 519.958862,311.751740 490.485565,323.271454   C474.061279,329.690887 457.187714,334.976746 440.436310,340.531311   C436.652374,341.786041 435.532349,343.579498 437.232880,347.074646   C438.761292,350.216095 440.211792,353.417725 442.016846,356.398956   C468.336029,399.868134 494.610840,443.364716 521.129211,486.712280   C529.042297,499.647308 537.630005,512.162842 548.995667,522.481628   C559.437927,531.962219 571.543579,538.360962 585.044373,542.160034   C593.028931,544.406738 594.025574,545.617737 593.584717,554.101013   C593.264709,560.258728 592.998474,566.420044 592.596375,572.572388   C592.169922,579.097412 589.926941,581.408325 583.443665,582.194153   C581.958130,582.374207 580.454895,582.430298 578.957642,582.489319   C541.627319,583.961670 504.740112,580.700806 468.481781,571.570068   C436.226471,563.447388 412.627197,543.803528 396.987854,514.936279   C370.648499,466.318848 344.950165,417.354126 318.983765,368.534607   C317.732697,366.182495 316.550812,363.791748 315.240326,361.473511   C313.272034,357.991516 310.274292,356.155884 306.227173,356.234833   C286.980713,356.610107 268.009857,354.268311 249.178329,350.510620   C248.897720,350.454620 248.556564,350.702148 247.853577,350.940002   C247.767731,352.247101 247.586716,353.706940 247.588333,355.166565   C247.640976,402.829834 247.690475,450.493134 247.818085,498.156250   C247.828308,501.970978 248.395523,505.784210 248.757706,510.030212  M597.302612,213.199860   C573.938782,194.559998 547.060730,182.774551 519.201965,172.752136   C479.868805,158.601730 438.953339,152.354721 397.671204,147.932480   C364.161591,144.342865 330.542358,143.401367 296.860596,144.655563   C246.982788,146.512894 197.517853,151.508408 149.302795,165.127502   C119.436714,173.563629 90.401070,184.217239 64.089905,201.115540   C51.164101,209.417130 38.574333,218.209839 30.489933,231.843948   C29.664913,233.235321 29.194418,234.836929 28.105671,237.415710   C32.433956,236.213669 35.443497,235.413879 38.432133,234.542404   C77.173882,223.245361 117.050667,218.883331 157.019424,215.001846   C231.249771,207.793091 305.655701,204.972702 380.150848,208.188049   C421.897552,209.989929 463.564606,213.861328 505.229340,217.267853   C538.306458,219.972214 571.008301,225.216888 603.044922,234.135605   C607.291748,235.317902 611.542603,236.486191 617.101013,238.023026   C612.633789,227.143250 605.590393,220.128006 597.302612,213.199860  M169.700912,220.057999   C165.703888,220.618942 161.706879,221.179901 156.353836,221.931152   C159.231995,225.349823 161.053055,227.878067 163.232834,230.045563   C185.199310,251.888290 207.163986,273.734070 229.346100,295.356445   C231.158218,297.122864 234.599716,298.112793 237.227341,298.010132   C265.997314,296.886536 294.751984,294.539062 323.518921,294.415649   C349.617401,294.303680 375.723969,296.575836 401.833649,297.632660   C403.918915,297.717072 406.704437,297.178406 408.072266,295.825165   C431.161438,272.982910 454.094513,249.982529 476.992188,226.947678   C478.512604,225.418198 479.472321,223.331406 481.234985,220.692001   C469.749359,219.445953 459.378265,217.994003 448.956696,217.241364   C356.099854,210.535217 263.301178,210.720428 169.700912,220.057999  M330.498535,137.950363   C344.641174,138.452728 358.830872,138.396027 372.916138,139.580566   C397.787537,141.672150 422.602234,144.455994 447.423431,147.111069   C451.846252,147.584183 452.760681,146.234909 451.512634,142.169205   C446.994202,127.450150 439.540222,114.291626 429.564270,102.736168   C401.324677,70.025314 365.021271,54.655632 322.177460,54.058090   C297.191162,53.709610 273.710022,59.490372 252.028580,72.124054   C224.236450,88.318398 206.004730,112.376984 194.410339,141.953415   C193.038239,145.453537 194.233047,146.684128 197.571136,146.477249   C201.555725,146.230301 205.566788,146.021576 209.499283,145.383133   C249.256332,138.928467 289.342682,137.893616 330.498535,137.950363  M613.769409,250.057465   C614.769653,248.650726 615.769836,247.243973 617.467224,244.856766   C607.558533,241.734146 598.667358,238.534088 589.564941,236.135681   C557.715332,227.743637 525.032471,224.781433 492.359741,221.949936   C490.135651,221.757187 487.145050,223.095505 485.494049,224.720566   C466.505890,243.410858 447.648743,262.235809 428.897095,281.164001   C423.561188,286.550140 418.679230,292.386078 412.640350,299.065002   C418.647369,300.275208 423.265717,301.419922 427.951111,302.108368   C440.737152,303.987183 453.102448,306.812012 463.858643,314.651520   C465.550354,315.884491 468.724670,316.163208 470.844635,315.568451   C510.201996,304.527527 548.609619,290.879364 584.464355,271.037018   C594.697449,265.373962 603.684875,257.459869 613.769409,250.057465  M95.007050,228.413971   C73.579887,233.142960 52.125240,237.752731 30.744297,242.682190   C25.187170,243.963409 24.408159,247.293716 28.505182,251.190903   C32.576572,255.063736 36.831005,258.825806 41.403557,262.075958   C61.358364,276.259735 83.622551,286.032288 106.290901,294.791412   C125.066612,302.046356 144.203964,308.363953 163.166275,315.138336   C168.361176,316.994293 172.697723,316.265961 177.694717,313.321655   C184.177032,309.502106 191.476089,306.778046 198.737411,304.656647   C205.399918,302.710205 212.478088,302.183899 219.374924,301.042908   C225.432129,300.040863 225.738708,299.359650 221.899704,294.369537   C220.180298,292.134613 218.262558,290.028412 216.262283,288.037109   C195.605606,267.473358 174.864502,246.994080 154.283401,226.355148   C151.126236,223.189133 147.760193,222.201370 143.500137,222.713547   C127.633194,224.621292 111.751640,226.407669 95.007050,228.413971  M376.297180,342.837616   C395.729736,340.031799 415.179047,337.334564 434.581177,334.331970   C438.641815,333.703613 442.750793,332.399994 446.429810,330.582397   C449.822845,328.906128 452.668121,326.121124 455.754669,323.824493   C452.551514,321.624390 449.627319,318.294769 446.096130,317.422668   C431.916534,313.920532 417.675842,310.205292 403.229126,308.324463   C338.385345,299.882202 273.687836,300.489227 209.400696,313.589172   C202.590698,314.976807 195.910141,317.164154 189.343674,319.475281   C187.535629,320.111633 185.228394,322.523743 185.207458,324.147583   C185.186417,325.779480 187.605515,327.580414 189.201614,329.037415   C189.995560,329.762177 191.312622,330.015778 192.441238,330.256531   C207.564407,333.482300 222.579269,337.458466 237.847595,339.715546   C283.518433,346.467010 329.417328,346.810730 376.297180,342.837616  z"/>
<path class="ufo-shine" fill="#000000" opacity="1.000000" stroke="none" d=" M246.357330,126.212593   C237.966736,127.010437 230.034134,127.802650 222.099701,128.576355   C221.787811,128.606750 221.458710,128.460419 221.138092,128.394012   C223.541901,120.297859 261.537506,88.840996 268.124390,88.305305   C263.857788,92.997025 258.408752,98.308594 253.819214,104.280701   C250.875702,108.110947 248.802551,112.765900 247.087845,117.332275   C245.855026,120.615280 247.872025,122.708366 251.503998,122.735863   C255.323807,122.764786 259.143982,122.742340 262.964020,122.742340   C262.983215,123.393852 263.002441,124.045364 263.021667,124.696877   C257.619446,125.199158 252.217209,125.701439 246.357330,126.212593  z"/>
<path class="ufo-light-left" fill="#000000" opacity="1.000000" stroke="none" d=" M142.094452,193.097382   C150.499786,186.703522 159.524353,182.624466 169.771530,181.898529   C171.802887,181.754623 173.942261,183.135651 176.031830,183.813446   C175.049072,185.796539 174.541855,188.321838 173.003296,189.671265   C165.289719,196.436829 156.121628,200.326248 145.973907,201.507370   C143.651443,201.777695 141.129013,200.330231 138.698608,199.673355   C139.742432,197.562378 140.786240,195.451401 142.094452,193.097382  z"/>
<path class="ufo-light-center" fill="#000000" opacity="1.000000" stroke="none" d=" M320.881531,192.092285   C311.090546,193.387451 304.125458,189.114716 303.632568,181.845642   C303.207916,175.582687 308.080597,170.110382 315.090485,168.977753   C322.582794,167.767151 329.543243,171.466980 331.205658,177.543747   C332.847351,183.544922 329.119385,188.961792 320.881531,192.092285  z"/>
<path class="ufo-light-right" fill="#000000" opacity="1.000000" stroke="none" d=" M471.932007,182.009842   C478.554291,185.472656 484.944427,188.575378 490.948181,192.300812   C492.727570,193.404968 493.418915,196.262451 494.608856,198.316498   C492.367249,198.984833 490.023529,200.456436 487.901184,200.186661   C476.976196,198.797928 467.155518,194.607208 459.050079,187.001770   C457.776093,185.806396 457.369598,183.686584 456.562012,181.994232   C458.479218,181.328995 460.420776,180.059235 462.308105,180.135315   C465.407959,180.260254 468.472595,181.258102 471.932007,182.009842  z"/>
</svg>