<svg class="uforpc-ufo-font" xmlns="http://www.w3.org/2000/svg" xmlns:xlink="http://www.w3.org/1999/xlink" version="1.1" id="Layer_1" x="0px" y="0px" enable-background="new 0 0 592 336" xml:space="preserve" viewBox="107.43 104.91 333.58 118.57">
  <path class="u" fill="#000000" d=" M122.101852,129.092102   C121.952995,117.848671 121.544136,117.208572 111.213806,116.073029   C107.694450,115.686172 107.409554,113.978340 107.436363,111.078468   C107.465538,107.924171 108.390961,106.650734 111.740089,106.679344   C127.402397,106.813164 143.066635,106.771515 158.729828,106.707382   C161.706055,106.695190 163.413025,107.425690 163.385529,110.881920   C163.360870,113.984001 162.810684,115.751778 159.148651,116.118561   C149.222809,117.112694 148.272964,118.317940 148.259079,128.263489   C148.231171,148.259369 148.264389,168.255325 148.245468,188.251236   C148.237671,196.479187 149.738022,204.257767 157.924637,208.129074   C167.098709,212.467285 176.704803,212.847626 185.628448,207.310196   C192.528229,203.028610 194.522186,195.821182 194.586182,188.239655   C194.760605,167.578659 194.695999,146.915054 194.617828,126.252899   C194.590317,118.977905 192.554626,116.866417 185.179642,116.172562   C182.118484,115.884552 179.632339,115.609489 179.705719,111.488457   C179.765640,108.124657 180.848770,106.665489 184.356552,106.703835   C195.519562,106.825859 206.685196,106.801407 217.848846,106.712494   C220.955795,106.687752 222.355103,107.750397 222.410446,111.037941   C222.465820,114.327728 221.466461,115.789482 217.976822,116.115768   C208.556580,116.996590 207.330750,118.502663 207.318726,128.007645   C207.294266,147.337021 207.272018,166.666519 207.327469,185.995758   C207.340012,190.365128 206.886459,194.687347 205.733231,198.843353   C202.540756,210.348465 195.181122,217.981934 183.563934,221.060104   C169.841278,224.696121 156.167068,224.346558 142.826187,219.301147   C130.121414,214.496323 123.540100,204.913223 122.692764,191.536743   C121.385597,170.901047 122.391144,150.229599 122.101852,129.092102  z"/>
  <path class="f" fill="#000000" d=" M243.627106,139.004547   C243.624466,134.509155 243.677673,130.511597 243.607864,126.516212   C243.478333,119.102333 241.258881,116.578003 233.893570,116.084862   C230.358994,115.848198 228.256668,115.096123 228.575836,110.881569   C228.799377,107.929703 229.791977,106.733444 232.761993,106.738426   C259.738831,106.783737 286.715820,106.785164 313.692596,106.719246   C316.853882,106.711525 318.242218,107.903801 318.226257,111.105469   C318.189697,118.431717 318.232208,125.760437 318.396362,133.084717   C318.477844,136.721176 316.208160,137.259811 313.504822,137.024399   C310.838928,136.792252 307.044006,138.443008 306.659088,133.563477   C305.375244,117.288818 299.830566,116.786697 286.985809,117.224052   C282.494781,117.376953 277.992432,117.336517 273.498993,117.228142   C270.598175,117.158173 269.275269,118.171440 269.303894,121.272476   C269.411530,132.928162 269.418152,144.586258 269.292419,156.241623   C269.259277,159.317261 270.334747,160.254761 273.381927,160.190063   C282.703400,159.992111 292.031891,160.146378 301.355652,160.018738   C305.184723,159.966324 307.545074,160.564117 307.496185,165.419159   C307.449158,170.086731 305.185516,170.440170 301.580811,170.387024   C292.423920,170.252060 283.260925,170.472260 274.106323,170.274414   C270.353790,170.193314 269.187592,171.576736 269.270691,175.233887   C269.474915,184.221634 269.316956,193.217148 269.355835,202.209305   C269.387817,209.598938 272.183990,212.441345 279.574097,212.651230   C281.890991,212.717056 284.211334,212.661484 286.395233,212.661484   C289.094879,220.357651 288.383270,221.417282 280.936279,221.413651   C265.282990,221.406036 249.629700,221.411560 233.976410,221.401688   C231.286758,221.399994 228.632812,221.720078 228.574615,217.536362   C228.522919,213.819733 229.866486,212.723526 233.496292,212.562302   C241.234833,212.218582 243.615738,209.399246 243.623978,201.450226   C243.645401,180.801285 243.628845,160.152313 243.627106,139.004547  z"/>
  <path class="o" fill="#000000" d=" M342.329712,202.551758   C329.227905,179.479813 328.707489,155.816040 338.635834,132.183060   C345.381165,116.126884 359.072021,108.284050 375.997406,105.707848   C385.522736,104.257988 394.928040,104.803215 404.189972,107.233025   C423.789429,112.374779 437.876404,129.788849 440.229156,151.208862   C441.717987,164.763672 441.421021,178.087601 436.448914,191.006821   C428.664642,211.232910 413.342407,221.194489 392.329712,223.153931   C384.165161,223.915283 376.000336,223.250824 368.097626,220.933578   C357.550018,217.840805 348.773743,212.108963 342.329712,202.551758  M361.965454,187.634827   C362.763947,192.089951 364.226105,196.336273 366.327454,200.324158   C370.863525,208.932724 378.267548,212.295197 387.758362,212.042053   C397.202087,211.790192 403.825684,207.563187 407.761505,198.939133   C411.273346,191.244095 412.601929,183.063171 413.242310,174.765991   C414.441833,159.225159 413.850067,143.849518 407.703033,129.190643   C405.178589,123.170616 400.807892,119.154236 394.466736,117.280373   C378.635651,112.602173 366.163849,120.889870 362.320526,138.811432   C358.898193,154.769836 358.983276,170.792862 361.965454,187.634827  z"/>
</svg>